<svg width="150" height="30" viewBox="0 0 150 30" fill="none" xmlns="http://www.w3.org/2000/svg">
<g clip-path="url(#clip0_37_691)">
<path d="M23.7604 0V29.9472H19.3031L4.45727 6.79976H4.33443V29.9472H0V0H4.73804L19.3031 22.9008H19.426V3.94598H13.0559V0H23.7604Z" fill="#151515"/>
<path d="M111.642 0V21.1392C111.646 21.8404 111.599 22.541 111.502 23.2355C111.424 23.9402 111.259 24.6325 111.011 25.2965C110.444 26.7717 109.399 28.0126 108.045 28.8197C106.955 29.4444 105.747 29.8316 104.498 29.9561C103.249 30.0805 101.988 29.9394 100.798 29.542C99.92 29.23 99.1013 28.7714 98.3759 28.1856C96.8545 27.0557 95.8191 25.3864 95.4805 23.5173H99.9026C100.166 24.3043 100.67 24.9883 101.342 25.4727C102.038 25.8967 102.844 26.105 103.658 26.0716C104.22 26.1027 104.781 25.9897 105.287 25.7431C105.794 25.4966 106.23 25.1246 106.553 24.6624C106.862 24.2043 107.077 23.6894 107.185 23.1474C107.326 22.5709 107.397 21.9794 107.396 21.3858V3.91075H101.184V0H111.713H111.642Z" fill="#151515"/>
<path d="M114.257 0.0878906H130.243V4.12195H118.591V12.9299H125.435V16.8935H118.591V25.9658H130.243V29.947H114.257V0.0878906Z" fill="#151515"/>
<path d="M140.386 29.9473C139.183 29.9529 137.99 29.7194 136.877 29.2603C135.827 28.8315 134.878 28.1898 134.087 27.3754C133.316 26.5392 132.719 25.557 132.332 24.4864C131.873 23.3434 131.629 22.1249 131.612 20.8927H135.789C135.75 21.5691 135.822 22.2473 135.999 22.9009C136.166 23.5433 136.465 24.1435 136.877 24.6625C137.312 25.1356 137.836 25.5166 138.42 25.783C139.004 26.0495 139.635 26.1961 140.276 26.2141C140.917 26.2322 141.555 26.1213 142.152 25.8882C142.75 25.655 143.295 25.3041 143.756 24.8563C144.609 23.8877 145.055 22.625 145.002 21.3331C145.033 20.6613 144.907 19.9916 144.633 19.3777C144.392 18.8791 144.037 18.4445 143.598 18.1094C143.149 17.753 142.661 17.4514 142.141 17.211L140.386 16.5063C139.281 16.0659 138.228 15.6431 137.263 15.2204C136.349 14.8213 135.493 14.2998 134.718 13.6702C133.969 13.0356 133.369 12.2412 132.964 11.3448C132.506 10.2289 132.291 9.02777 132.332 7.82165C132.319 6.7547 132.534 5.69739 132.964 4.72124C133.385 3.78833 133.981 2.94517 134.718 2.23739C135.448 1.53801 136.306 0.987599 137.245 0.616721C138.243 0.21156 139.31 0.00226238 140.386 0.000161998C141.522 -0.0063644 142.65 0.184352 143.721 0.563873C144.698 0.90977 145.59 1.46248 146.335 2.18454C147.088 2.8995 147.686 3.76318 148.09 4.72124C148.507 5.76234 148.716 6.87573 148.704 7.99781H144.458C144.487 7.43868 144.404 6.87939 144.214 6.35294C144.024 5.8265 143.731 5.34356 143.352 4.93263C142.959 4.55546 142.493 4.26377 141.983 4.07583C141.473 3.8879 140.929 3.80776 140.386 3.84044C139.872 3.83848 139.364 3.94658 138.895 4.15753C138.436 4.36498 138.023 4.66475 137.684 5.03833C137.338 5.4099 137.059 5.83908 136.859 6.30668C136.669 6.79474 136.573 7.31506 136.578 7.83927C136.552 8.27446 136.622 8.71014 136.782 9.11517C136.943 9.52019 137.191 9.88455 137.509 10.1822C138.204 10.7873 139 11.2644 139.86 11.5915C140.784 11.9555 141.802 12.3255 142.913 12.7013C144.003 13.0655 145.037 13.5814 145.984 14.2339C146.951 14.9247 147.754 15.8209 148.336 16.8586C148.977 18.2269 149.261 19.7363 149.161 21.245C149.166 22.4499 148.946 23.6451 148.511 24.7682C148.128 25.7994 147.53 26.7364 146.756 27.5163C145.948 28.2872 144.993 28.8864 143.949 29.2779C142.813 29.7204 141.605 29.9474 140.386 29.9473Z" fill="#151515"/>
<path d="M41.4142 29.9472C39.4117 29.963 37.4278 29.5611 35.5881 28.7669C33.8088 28.0042 32.1892 26.9104 30.815 25.5432C29.4448 24.1803 28.3486 22.5655 27.5861 20.7869C26.8035 18.9622 26.4033 16.9954 26.4104 15.0089C26.3999 12.9821 26.7999 10.9743 27.5861 9.10751C28.3482 7.32345 29.4443 5.70281 30.815 4.33358C32.1924 2.98367 33.812 1.90777 35.5881 1.16271C37.4572 0.382517 39.4619 -0.0176553 41.4861 -0.0146314C43.5103 -0.0116076 45.5138 0.394553 47.3806 1.18033C49.1602 1.93477 50.7801 3.0229 52.1537 4.38643C53.4884 5.76345 54.5486 7.38382 55.2773 9.16036C56.0419 11.0326 56.4295 13.0383 56.418 15.0617C56.4333 17.0566 56.0266 19.032 55.2247 20.8574C54.4597 22.6286 53.3568 24.2324 51.9782 25.5784C50.6017 26.9383 48.9824 28.026 47.2051 28.7846C45.3764 29.5723 43.404 29.9683 41.4142 29.9472ZM41.4142 3.82272C39.3104 3.79308 37.2475 4.40756 35.5004 5.58432C33.7633 6.77725 32.4049 8.44671 31.5871 10.3935C31.2774 11.1009 31.0421 11.8389 30.8852 12.5955C30.7091 13.3937 30.6208 14.2089 30.622 15.0265C30.6228 15.809 30.7111 16.589 30.8852 17.3518C31.0496 18.1406 31.2845 18.913 31.5871 19.6595C32.3911 21.5896 33.7313 23.2468 35.4477 24.4334C37.1996 25.6001 39.2593 26.2137 41.3615 26.195C43.5849 26.2486 45.7653 25.5746 47.5736 24.2749C49.3666 22.9491 50.7136 21.1053 51.4342 18.9901C51.8849 17.7479 52.1165 16.4365 52.1186 15.1146C52.1309 13.6256 51.8568 12.1482 51.3114 10.7634C50.8022 9.45552 50.0454 8.25907 49.0828 7.24022C48.1211 6.20974 46.9636 5.38314 45.6784 4.80922C44.3433 4.18104 42.8886 3.85051 41.4142 3.84034V3.82272Z" fill="#151515"/>
<path d="M41.7653 15.0264C41.7495 17.0138 42.1501 18.9824 42.941 20.8044C43.4067 21.8739 43.9957 22.8849 44.6959 23.8167C45.3815 23.5709 46.0308 23.2332 46.6262 22.8126C47.1389 22.4294 47.6095 21.9924 48.03 21.509C47.6334 20.923 47.2871 20.3042 46.9947 19.6594C46.7 18.9101 46.4653 18.1384 46.2928 17.3517C46.1243 16.5883 46.0419 15.8083 46.0471 15.0264C46.0402 14.2094 46.1225 13.3942 46.2928 12.5954C46.4575 11.8409 46.6925 11.1037 46.9947 10.3934C47.2804 9.74299 47.6209 9.11829 48.0125 8.52607C47.9775 8.46337 47.9364 8.40436 47.8897 8.34991C47.0801 7.49349 46.1153 6.79995 45.0468 6.30645L44.6608 6.16553C43.9601 7.07805 43.3709 8.07164 42.9059 9.12501C42.1236 10.9919 41.7352 13.0013 41.7653 15.0264Z" fill="#151515"/>
<path d="M70.6139 9.16059C69.8707 7.37916 68.7922 5.75827 67.4377 4.38666C66.0641 3.02313 64.4441 1.935 62.6646 1.18056C60.8003 0.397185 58.7999 -0.00770157 56.7789 -0.0107251C54.7578 -0.0137487 52.7562 0.385151 50.8896 1.16294C51.7596 1.75218 52.5707 2.42474 53.3113 3.17116C53.6096 3.47063 53.908 3.80534 54.1887 4.14004C55.0339 3.93883 55.8997 3.83832 56.7683 3.84057C58.2549 3.8249 59.7274 4.13134 61.0852 4.73898C62.3676 5.31779 63.5243 6.14375 64.4896 7.16999C65.4394 8.21203 66.1838 9.4255 66.6831 10.746C67.2143 12.1343 67.4821 13.6101 67.4728 15.0972C67.468 16.4174 67.2426 17.7274 66.806 18.9727C66.0793 21.0848 64.7336 22.9269 62.9453 24.2575C61.137 25.5572 58.9566 26.2312 56.7332 26.1776C55.8466 26.174 54.9633 26.0676 54.101 25.8605C53.8035 26.2178 53.4872 26.5589 53.1534 26.8823C52.452 27.5669 51.6948 28.1916 50.8896 28.7495H50.9774C52.8156 29.5286 54.7906 29.93 56.7859 29.93C58.7812 29.93 60.7562 29.5286 62.5944 28.7495C64.3693 27.9866 65.9878 26.8995 67.3675 25.5434C68.7406 24.1928 69.8427 22.5901 70.6139 20.8224C71.4088 18.9948 71.8152 17.0209 71.8072 15.0267C71.806 13.0107 71.4001 11.0157 70.6139 9.16059Z" fill="#151515"/>
<path d="M87.9346 18.6553C88.4162 18.5495 88.8908 18.4142 89.356 18.2501C91.1282 17.679 92.6439 16.5005 93.6378 14.9207C94.5724 13.3202 95.0463 11.4907 95.0065 9.63594C95.0018 8.32723 94.7763 7.02878 94.3397 5.79565C93.919 4.57315 93.2154 3.4683 92.2865 2.57193C91.2731 1.51583 89.9737 0.78092 88.5488 0.458015C87.1298 0.153679 85.6829 0.000160843 84.2319 0L74.1416 0V29.9472H78.4409V3.99883H83.9686C84.8166 3.99165 85.6614 4.10433 86.4781 4.33353C87.2474 4.54983 87.9723 4.90175 88.619 5.37287C89.2377 5.83482 89.7371 6.43889 90.0755 7.13447C90.4582 7.89838 90.6451 8.74601 90.6195 9.6007C90.6654 10.6326 90.4092 11.6553 89.8824 12.5426C89.4013 13.2808 88.7437 13.8864 87.9697 14.3042C87.1468 14.7599 86.2494 15.0641 85.3199 15.2026C84.3806 15.365 83.4301 15.4534 82.477 15.4668H79.4763L89.356 29.9472H94.7609L86.3728 18.7962C86.8969 18.806 87.4206 18.7587 87.9346 18.6553Z" fill="#151515"/>
</g>
<defs>
<clipPath id="clip0_37_691">
<rect width="149.231" height="30" fill="white"/>
</clipPath>
</defs>
</svg>
